<svg width="82" height="82" viewBox="0 0 82 82" fill="none" xmlns="http://www.w3.org/2000/svg">
<path d="M71.9875 40.6798C71.954 39.466 70.79 38.5341 69.616 38.8402C66.7576 39.5888 63.7168 38.7678 61.6226 36.682C61.2551 36.3079 60.9228 35.9007 60.6299 35.4656C60.164 34.7528 59.2961 34.4162 58.4719 34.6287C55.6319 35.3546 52.6199 34.5278 50.5476 32.4534C48.4753 30.3791 47.65 27.3648 48.3763 24.5231C48.5874 23.699 48.2512 22.8317 47.5399 22.3656C47.108 22.0736 46.7049 21.7409 46.3362 21.3722C44.2495 19.2856 43.4267 16.2473 44.1751 13.3919C44.4823 12.2116 43.5454 11.0456 42.3268 11.0127C33.9516 10.7708 25.8482 13.9994 19.9311 19.9354C7.68127 32.1936 8.03679 52.2712 20.9729 64.0842C32.5365 74.6386 50.466 74.6386 62.0296 64.0842C68.6046 58.1119 72.2423 49.562 71.9875 40.6798ZM29.0097 39.8125C25.8927 39.0814 23.7741 36.1871 24.0193 32.9949C24.2645 29.8027 26.8003 27.2659 29.9924 27.0195C33.1845 26.773 36.0796 28.8905 36.8119 32.0073C37.353 34.199 36.7084 36.514 35.1124 38.1106C33.5164 39.7073 31.2016 40.3528 29.0097 39.8125ZM39.9114 55.8398C39.4915 57.7945 37.6929 59.139 35.6992 58.9885C33.7056 58.838 32.1292 57.2387 32.0075 55.2431C31.8858 53.2475 33.2562 51.4685 35.2168 51.0769C36.5379 50.8143 37.9024 51.2337 38.8479 52.1929C39.7935 53.1522 40.1931 54.5227 39.9114 55.8398ZM60.9414 48.7898C60.5363 51.3155 58.291 53.1287 55.7366 52.9928C53.1822 52.857 51.1418 50.8158 51.007 48.2613C50.8722 45.7069 52.6864 43.4623 55.2123 43.0583C56.7943 42.8153 58.3974 43.3405 59.529 44.4725C60.6605 45.6045 61.185 47.2079 60.9414 48.7898Z" fill="white"/>
</svg>
