<?xml version="1.0" encoding="UTF-8"?>
<svg width="82px" height="82px" viewBox="0 0 82 82" version="1.1" xmlns="http://www.w3.org/2000/svg" xmlns:xlink="http://www.w3.org/1999/xlink">
    <title>Untitled</title>
    <g id="Page-1" stroke="none" stroke-width="1" fill="none" fill-rule="evenodd">
        <g id="icon" fill-rule="nonzero">
            <path d="M82.0004802,75.9424124 C82.0004802,79.2874108 79.2876509,82 75.9428926,82 L6.05734748,82 C2.71258916,82 0,79.2871707 0,75.9424124 L0,6.05758758 C0,2.71114859 2.71258916,0 6.05734748,0 L75.9426525,0 C79.2876509,0 82.0004802,2.71114859 82.0004802,6.05758758 L82.0004802,75.9424124 L82.0004802,75.9424124 Z" id="Shape" fill="#1F4B7F"></path>
            <g id="7188710_cookie_food_sweet_snack_dessert_icon" transform="translate(11.000000, 11.000000)" fill="#FFFFFF">
                <path d="M60.9874517,29.6798461 C60.953957,28.4660026 59.7899563,27.5340648 58.6160361,27.8401557 C55.7576255,28.5887774 52.716755,27.7677542 50.6225875,25.6819557 C50.2550746,25.3078617 49.922761,24.9007029 49.6298541,24.4656343 C49.1640351,23.7527796 48.2961043,23.4161616 47.4718747,23.6286842 C44.6319296,24.354596 41.6199375,23.5277891 39.547634,21.4534406 C37.4753305,19.379092 36.6500097,16.364799 37.3763,13.5231466 C37.5874036,12.698964 37.2512012,11.8316924 36.539904,11.3655697 C36.1079721,11.0735505 35.7049097,10.740903 35.3362107,10.3721615 C33.2494635,8.28561018 32.4266742,5.24727801 33.1751323,2.39190056 C33.4822608,1.21160346 32.5453518,0.0455798816 31.3267721,0.012671081 C22.9516417,-0.229156412 14.8482181,2.99936076 8.9311012,8.93541922 C-3.3187313,21.1935779 -2.96320722,41.2711777 9.97285292,53.0841619 C21.5364578,63.6386127 39.4660158,63.6386127 51.0296207,53.0841619 C57.6046006,47.1118545 61.2423082,38.5619947 60.9874517,29.6798461 L60.9874517,29.6798461 Z M18.0097273,28.812502 C14.8927144,28.0814437 12.7740712,25.1871124 13.0192707,21.9949149 C13.2644702,18.8027173 15.8002911,16.2659065 18.9923878,16.0194661 C22.1844844,15.7730257 25.079634,17.8905476 25.8119023,21.0072814 C26.3530377,23.1989673 25.7084064,25.5140442 24.1124242,27.1106494 C22.516442,28.7072545 20.2016197,29.3527866 18.0097273,28.812502 L18.0097273,28.812502 Z M28.9114228,44.8398132 C28.4915016,46.7945148 26.6928634,48.1390325 24.6992179,47.9885199 C22.7055725,47.8380072 21.1291876,46.2386881 21.007505,44.2430976 C20.8858223,42.247507 22.2562118,40.4685101 24.2168003,40.0768904 C25.5378658,39.8142689 26.9024373,40.2336734 27.8479464,41.1929324 C28.7934555,42.1521914 29.193106,43.5226647 28.9114228,44.8397834 L28.9114228,44.8398132 Z M49.9413792,37.7897932 C49.5363264,40.3155365 47.2909741,42.128728 44.7365655,41.9928414 C42.182157,41.8569548 40.1418457,39.8157795 40.0070448,37.2613176 C39.8722438,34.7068558 41.6863926,32.4622782 44.2123121,32.0582997 C45.7943134,31.8153098 47.3974392,32.3405276 48.528964,33.4725259 C49.6604887,34.6045241 50.185034,36.2078676 49.9413792,37.7897642 L49.9413792,37.7897932 Z" id="Shape"></path>
            </g>
        </g>
    </g>
</svg>